solid OpenSCAD_Model
  facet normal 1 -0 0
    outer loop
      vertex 15 8 20
      vertex 15 82 8
      vertex 15 82 20
    endloop
  endfacet
  facet normal 1 0 0
    outer loop
      vertex 15 82 8
      vertex 15 8 20
      vertex 15 8 8
    endloop
  endfacet
  facet normal 0 0 1
    outer loop
      vertex 45 90 20
      vertex 15 82 20
      vertex 45 82 20
    endloop
  endfacet
  facet normal 0 0 1
    outer loop
      vertex 15 82 20
      vertex 0 90 20
      vertex 15 8 20
    endloop
  endfacet
  facet normal -0 0 1
    outer loop
      vertex 0 90 20
      vertex 15 82 20
      vertex 45 90 20
    endloop
  endfacet
  facet normal -0 0 1
    outer loop
      vertex 15 8 20
      vertex 45 0 20
      vertex 45 8 20
    endloop
  endfacet
  facet normal 0 0 1
    outer loop
      vertex 15 8 20
      vertex 0 0 20
      vertex 45 0 20
    endloop
  endfacet
  facet normal 0 0 1
    outer loop
      vertex 0 0 20
      vertex 15 8 20
      vertex 0 90 20
    endloop
  endfacet
  facet normal 0 0 -1
    outer loop
      vertex 0 0 0
      vertex 45 90 0
      vertex 45 0 0
    endloop
  endfacet
  facet normal -0 0 -1
    outer loop
      vertex 45 90 0
      vertex 0 0 0
      vertex 0 90 0
    endloop
  endfacet
  facet normal -1 0 0
    outer loop
      vertex 0 0 0
      vertex 0 90 20
      vertex 0 90 0
    endloop
  endfacet
  facet normal -1 -0 0
    outer loop
      vertex 0 90 20
      vertex 0 0 0
      vertex 0 0 20
    endloop
  endfacet
  facet normal 0 1 -0
    outer loop
      vertex 45 90 0
      vertex 0 90 20
      vertex 45 90 20
    endloop
  endfacet
  facet normal 0 1 0
    outer loop
      vertex 0 90 20
      vertex 45 90 0
      vertex 0 90 0
    endloop
  endfacet
  facet normal 0 -1 0
    outer loop
      vertex 0 0 0
      vertex 45 0 20
      vertex 0 0 20
    endloop
  endfacet
  facet normal 0 -1 -0
    outer loop
      vertex 45 0 20
      vertex 0 0 0
      vertex 45 0 0
    endloop
  endfacet
  facet normal 1 0 0
    outer loop
      vertex 45 8 20
      vertex 45 0 20
      vertex 45 8 8
    endloop
  endfacet
  facet normal 1 0 0
    outer loop
      vertex 45 82 8
      vertex 45 90 20
      vertex 45 82 20
    endloop
  endfacet
  facet normal 1 0 0
    outer loop
      vertex 45 90 20
      vertex 45 82 8
      vertex 45 90 0
    endloop
  endfacet
  facet normal 1 -0 0
    outer loop
      vertex 45 8 8
      vertex 45 90 0
      vertex 45 82 8
    endloop
  endfacet
  facet normal 1 0 0
    outer loop
      vertex 45 8 8
      vertex 45 0 0
      vertex 45 90 0
    endloop
  endfacet
  facet normal 1 0 0
    outer loop
      vertex 45 0 0
      vertex 45 8 8
      vertex 45 0 20
    endloop
  endfacet
  facet normal -0 0 1
    outer loop
      vertex 15 82 8
      vertex 45 8 8
      vertex 45 82 8
    endloop
  endfacet
  facet normal 0 0 1
    outer loop
      vertex 45 8 8
      vertex 15 82 8
      vertex 15 8 8
    endloop
  endfacet
  facet normal 0 1 -0
    outer loop
      vertex 45 8 8
      vertex 15 8 20
      vertex 45 8 20
    endloop
  endfacet
  facet normal 0 1 0
    outer loop
      vertex 15 8 20
      vertex 45 8 8
      vertex 15 8 8
    endloop
  endfacet
  facet normal 0 -1 0
    outer loop
      vertex 15 82 8
      vertex 45 82 20
      vertex 15 82 20
    endloop
  endfacet
  facet normal 0 -1 -0
    outer loop
      vertex 45 82 20
      vertex 15 82 8
      vertex 45 82 8
    endloop
  endfacet
endsolid OpenSCAD_Model
